<svg xmlns="http://www.w3.org/2000/svg" viewBox="0 0 100 15.550130875699079" xmlns:xlink="http://www.w3.org/1999/xlink" version="1.1"  ><g transform="translate(19.674264926742985 11.458179373608404) scale(0.2062067025521953)" id="horizontalContainerlessSvgTemplate"><g fill="#003D63"><g transform="translate(-102.59234792182771 -62.748417285989554) scale(0.8977429121937794)" id="logomark"><g fill="#003D63"><path d="M60 55.22L45.152 40.372c-4.196-4.196-4.196-11.023 0-15.219A10.691 10.691 0 0 1 52.762 22c2.703 0 5.254.99 7.238 2.798A10.681 10.681 0 0 1 67.238 22c2.874 0 5.577 1.12 7.609 3.152C76.881 27.185 78 29.887 78 32.762s-1.119 5.577-3.152 7.61L60 55.22zM52.762 26a6.717 6.717 0 0 0-4.781 1.98 6.769 6.769 0 0 0 0 9.563L60 49.563l12.02-12.02c1.277-1.277 1.98-2.976 1.98-4.782s-.703-3.504-1.98-4.781A6.725 6.725 0 0 0 67.238 26a6.715 6.715 0 0 0-4.781 1.98L60 30.437l-2.457-2.456A6.714 6.714 0 0 0 52.762 26z"></path><path d="M84 92H16c-4.411 0-8-3.589-8-8V16c0-4.411 3.589-8 8-8h68c4.411 0 8 3.589 8 8v68c0 4.411-3.589 8-8 8zM16 12c-2.206 0-4 1.794-4 4v68c0 2.206 1.794 4 4 4h68c2.206 0 4-1.794 4-4V16c0-2.206-1.794-4-4-4H16z"></path></g></g><g transform="translate(-2.219653179190752 0) scale(0.9633911368015415)" fill="#003D63"><g id="line1" fill="#000000"><path d="M29.592-37.800L29.592-33.840C26.424-36.432 22.608-38.592 17.136-38.592C8.280-38.592 2.304-31.968 2.304-18.864C2.304-5.904 8.280 0.792 17.136 0.792C22.608 0.792 26.424-1.296 29.592-3.888L29.592 0.072C29.592 4.392 27.720 6.264 21.888 6.264C18.072 6.264 10.944 4.680 6.264 3.240C5.472 6.192 4.752 9.216 3.960 12.312C10.440 14.184 18.432 15.408 24.408 15.408C35.928 15.408 41.400 10.296 41.400-0.504L41.400-37.800ZM20.880-8.712C16.488-8.712 14.256-12.240 14.256-18.936C14.256-25.560 16.488-29.088 20.880-29.088C23.832-29.088 26.856-27.720 29.592-24.624L29.592-13.104C26.856-10.080 23.832-8.712 20.880-8.712Z"></path><path d="M76.457 0L88.265 0L88.265-23.832C88.265-34.560 83.513-38.592 72.353-38.592C66.809-38.592 60.401-37.512 52.769-35.064L56.369-27.000C62.417-28.800 66.449-29.664 70.121-29.664C74.873-29.664 76.457-28.296 76.457-24.480L76.457-22.104C73.937-22.608 68.609-23.832 64.289-23.832C56.081-23.832 50.177-19.440 50.177-11.664C50.177-4.248 55.649 0.792 63.425 0.792C69.257 0.792 73.577-1.656 76.457-4.248ZM67.313-8.280C64.289-8.280 62.201-9.648 62.201-12.744C62.201-15.840 64.217-17.568 68.249-17.568C70.841-17.568 74.441-16.848 76.457-16.416L76.457-11.880C73.433-9.360 70.265-8.280 67.313-8.280Z"></path><path d="M96.394-29.160L101.578-29.160L101.578-13.032C101.578-3.672 105.394 0.792 113.314 0.792C118.642 0.792 123.538-1.224 126.130-2.376L122.026-11.088C121.090-10.728 118.210-9.504 116.482-9.504C115.042-9.504 113.314-9.792 113.314-12.960L113.314-29.160L123.610-29.160L123.610-37.800L113.314-37.800L113.314-48.744L101.578-47.304L101.578-37.800L96.394-37.800Z"></path><path d="M145.058-52.488L133.250-52.488L133.250 0L145.058 0L145.058-25.056C147.218-27.144 151.178-29.448 154.634-29.448C158.234-29.448 159.098-27.072 159.098-23.832L159.098 0L170.906 0L170.906-26.568C170.906-33.912 167.594-38.592 159.386-38.592C153.482-38.592 148.514-35.856 145.058-33.552Z"></path><path d="M216.835-16.416C216.835-16.416 217.483-18.648 217.483-21.816C217.483-31.464 211.435-38.592 199.195-38.592C187.099-38.592 179.899-31.248 179.899-18.792C179.899-5.256 188.107 0.792 198.331 0.792C207.187 0.792 214.819-3.456 217.699-5.040L213.379-12.384C208.699-9.936 203.515-7.920 199.555-7.920C195.019-7.920 192.571-10.800 191.995-16.416ZM199.267-30.240C203.659-30.240 205.891-27.576 205.963-22.608L192.067-22.608C192.715-27.504 195.019-30.240 199.267-30.240Z"></path><path d="M238.572-37.800L226.764-37.800L226.764 0L238.572 0L238.572-14.976C238.572-14.976 239.940-27.144 252.684-27.144L252.684-38.232C243.108-38.880 239.436-32.112 238.572-29.952Z"></path></g></g><g transform="translate(245.20693641618502 7.105427357601002e-15) scale(0.9633911368015414)" fill="#003D63"><g id="line2" fill="#000000"><path d="M10.800-37.800L6.336-37.800L6.336 0L10.800 0L10.800-27.792C13.752-30.672 19.008-34.776 24.048-34.776C29.376-34.776 30.816-30.816 30.816-26.352L30.816 0L35.280 0L35.280-27.648C38.088-30.528 43.488-34.776 48.672-34.776C54.000-34.776 55.440-30.816 55.440-26.352L55.440 0L59.904 0L59.904-27.072C59.904-33.120 57.672-38.592 49.680-38.592C43.344-38.592 37.368-33.912 34.848-31.392C33.984-34.560 31.680-38.592 25.056-38.592C19.152-38.592 13.608-34.632 10.800-32.040Z"></path><path d="M105.329-17.640C105.329-17.640 105.689-19.656 105.689-22.320C105.689-31.680 100.361-38.592 90.209-38.592C80.489-38.592 73.073-31.752 73.073-18.936C73.073-5.904 80.561 0.792 89.273 0.792C96.329 0.792 102.305-2.952 105.977-5.112L103.601-8.208C100.433-6.264 94.889-2.952 89.417-2.952C82.937-2.952 78.257-8.712 77.825-17.640ZM90.137-34.920C97.049-34.920 101.369-30.744 101.153-20.880L77.897-20.880C78.473-29.376 83.009-34.920 90.137-34.920Z"></path><path d="M149.818 0L149.818-52.488L145.354-52.488L145.354-32.616C142.402-35.352 137.794-38.592 131.746-38.592C123.970-38.592 117.418-33.048 117.418-18.864C117.418-4.752 123.970 0.792 131.746 0.792C137.794 0.792 142.402-2.376 145.354-5.112L145.354 0ZM132.250-3.096C125.482-3.096 122.098-9.144 122.098-18.864C122.098-28.656 125.482-34.704 132.250-34.704C137.506-34.704 142.258-31.680 145.354-28.224L145.354-9.504C142.258-6.120 137.506-3.096 132.250-3.096Z"></path></g></g></g></g></svg>