<?xml version="1.0" encoding="utf-8"?>
<!-- Generator: Adobe Illustrator 24.2.3, SVG Export Plug-In . SVG Version: 6.00 Build 0)  -->
<svg version="1.1" id="Layer_1" xmlns="http://www.w3.org/2000/svg" xmlns:xlink="http://www.w3.org/1999/xlink" x="0px" y="0px"
	 viewBox="0 0 100 16" style="enable-background:new 0 0 100 16;" xml:space="preserve">
<style type="text/css">
	.st0{fill:url(#SVGID_1_);}
	.st1{fill:url(#SVGID_2_);}
</style>
<g id="logomark" transform="translate(-102.59234792182771 -62.748417285989554) scale(0.8977429121937794)">
	<g>
		<linearGradient id="SVGID_1_" gradientUnits="userSpaceOnUse" x1="123.5179" y1="72.9337" x2="126.6497" y2="78.3582">
			<stop  offset="1.288749e-07" style="stop-color:#00F885"/>
			<stop  offset="1" style="stop-color:#01B1D5"/>
		</linearGradient>
		<path class="st0" d="M125,80.1l-3.1-3.1c-0.9-0.9-0.9-2.3,0-3.1c0.4-0.4,1-0.7,1.6-0.7c0.6,0,1.1,0.2,1.5,0.6
			c0.4-0.4,0.9-0.6,1.5-0.6c0.6,0,1.2,0.2,1.6,0.6c0.4,0.4,0.7,1,0.7,1.6c0,0.6-0.2,1.2-0.6,1.6L125,80.1z M123.5,74.1
			c-0.4,0-0.7,0.1-1,0.4c-0.5,0.5-0.5,1.4,0,2L125,79l2.5-2.5c0.3-0.3,0.4-0.6,0.4-1c0-0.4-0.1-0.7-0.4-1c-0.3-0.3-0.6-0.4-1-0.4
			c-0.4,0-0.7,0.1-1,0.4L125,75l-0.5-0.5C124.2,74.3,123.9,74.1,123.5,74.1z"/>
		<linearGradient id="SVGID_2_" gradientUnits="userSpaceOnUse" x1="117.4046" y1="68.7876" x2="127.791" y2="86.7773">
			<stop  offset="1.288749e-07" style="stop-color:#00F885"/>
			<stop  offset="1" style="stop-color:#01B1D5"/>
		</linearGradient>
		<path class="st1" d="M130.5,87.7h-14.5c-0.9,0-1.6-0.7-1.6-1.6V71.5c0-0.9,0.7-1.6,1.6-1.6h14.5c0.9,0,1.6,0.7,1.6,1.6v14.5
			C132.1,87,131.4,87.7,130.5,87.7z M115.4,71.8v13.9c0,0.5,0.4,0.8,0.8,0.8h13.9c0.5,0,0.8-0.4,0.8-0.8V71.8c0-0.5-0.4-0.8-0.8-0.8
			h-13.9C115.8,71,115.4,71.4,115.4,71.8z"/>
	</g>
</g>
<g>
	<g transform="translate(-2.219653179190752 0) scale(0.9633911368015415)">
		<g id="line1">
			<path d="M28.4,4.3v0.8c-0.7-0.5-1.4-1-2.6-1c-1.8,0-3.1,1.4-3.1,4.1c0,2.7,1.2,4.1,3.1,4.1c1.1,0,1.9-0.4,2.6-1v0.8
				c0,0.9-0.4,1.3-1.6,1.3c-0.8,0-2.3-0.3-3.2-0.6c-0.2,0.6-0.3,1.2-0.5,1.9c1.3,0.4,3,0.6,4.2,0.6c2.4,0,3.5-1.1,3.5-3.3V4.3H28.4z
				 M26.6,10.3c-0.9,0-1.4-0.7-1.4-2.1c0-1.4,0.5-2.1,1.4-2.1c0.6,0,1.2,0.3,1.8,0.9v2.4C27.8,10,27.2,10.3,26.6,10.3z"/>
			<path d="M38,12.1h2.4V7.2c0-2.2-1-3-3.3-3c-1.1,0-2.5,0.2-4,0.7l0.7,1.7C35.1,6.2,36,6,36.7,6c1,0,1.3,0.3,1.3,1.1v0.5
				c-0.5-0.1-1.6-0.4-2.5-0.4c-1.7,0-2.9,0.9-2.9,2.5c0,1.5,1.1,2.6,2.7,2.6c1.2,0,2.1-0.5,2.7-1V12.1z M36.1,10.4
				c-0.6,0-1.1-0.3-1.1-0.9s0.4-1,1.2-1c0.5,0,1.3,0.1,1.7,0.2v0.9C37.4,10.2,36.7,10.4,36.1,10.4z"/>
			<path d="M42.1,6.1h1.1v3.3c0,1.9,0.8,2.9,2.4,2.9c1.1,0,2.1-0.4,2.6-0.7l-0.8-1.8c-0.2,0.1-0.8,0.3-1.1,0.3
				c-0.3,0-0.7-0.1-0.7-0.7V6.1h2.1V4.3h-2.1V2.1l-2.4,0.3v2h-1.1V6.1z"/>
			<path d="M52.2,1.3h-2.4v10.8h2.4V7c0.4-0.4,1.3-0.9,2-0.9c0.7,0,0.9,0.5,0.9,1.2v4.9h2.4V6.6c0-1.5-0.7-2.5-2.4-2.5
				c-1.2,0-2.2,0.6-3,1V1.3z"/>
			<path d="M67,8.7c0,0,0.1-0.5,0.1-1.1c0-2-1.2-3.5-3.8-3.5c-2.5,0-4,1.5-4,4.1c0,2.8,1.7,4,3.8,4c1.8,0,3.4-0.9,4-1.2l-0.9-1.5
				c-1,0.5-2,0.9-2.9,0.9c-0.9,0-1.4-0.6-1.6-1.8H67z M63.3,5.9c0.9,0,1.4,0.5,1.4,1.6h-2.9C62,6.5,62.5,5.9,63.3,5.9z"/>
			<path d="M71.4,4.3H69v7.8h2.4V9c0,0,0.3-2.5,2.9-2.5V4.2c-2-0.1-2.7,1.3-2.9,1.7V4.3z"/>
		</g>
	</g>
	<g transform="translate(245.20693641618502 7.105427357601002e-15) scale(0.9633911368015414)">
		<g id="line2">
			<path d="M-179.4,4.3h-0.9v7.8h0.9V6.4c0.6-0.6,1.7-1.4,2.7-1.4c1.1,0,1.4,0.8,1.4,1.7v5.4h0.9V6.4c0.6-0.6,1.7-1.5,2.8-1.5
				c1.1,0,1.4,0.8,1.4,1.7v5.4h0.9V6.5c0-1.2-0.5-2.4-2.1-2.4c-1.3,0-2.5,1-3.1,1.5c-0.2-0.7-0.7-1.5-2-1.5c-1.2,0-2.4,0.8-2.9,1.4
				V4.3z"/>
			<path d="M-159.9,8.5c0,0,0.1-0.4,0.1-1c0-1.9-1.1-3.4-3.2-3.4c-2,0-3.5,1.4-3.5,4.1c0,2.7,1.5,4.1,3.3,4.1c1.5,0,2.7-0.8,3.4-1.2
				l-0.5-0.6c-0.7,0.4-1.8,1.1-2.9,1.1c-1.3,0-2.3-1.2-2.4-3H-159.9z M-163,4.9c1.4,0,2.3,0.9,2.3,2.9h-4.8
				C-165.4,6.1-164.5,4.9-163,4.9z"/>
			<path d="M-150.7,12.1V1.3h-0.9v4.1c-0.6-0.6-1.6-1.2-2.8-1.2c-1.6,0-3,1.1-3,4.1c0,2.9,1.4,4.1,3,4.1c1.2,0,2.2-0.7,2.8-1.2v1.1
				H-150.7z M-154.3,11.5c-1.4,0-2.1-1.2-2.1-3.3c0-2,0.7-3.3,2.1-3.3c1.1,0,2.1,0.6,2.7,1.3v3.9C-152.3,10.9-153.3,11.5-154.3,11.5
				z"/>
		</g>
	</g>
</g>
</svg>
